#!OML:ASF H:\LiuWeirdWalks\Patient Classification 1\Patient 1\Session 1\male.ASF
:FULLY-SPECIFIED
:DEGREES
1321
root 2.60403 17.983 26.5708 1.59651 0.361388 -1.93409
lowerback 4.31593 3.27582 4.46674
upperback 0.379632 4.53827 -2.23965
thorax -1.4947 2.23972 -5.05033
lowerneck -19.9806 -3.1866 1.26493
upperneck 24.3224 -4.9705 0.214193
head 11.171 -2.09743 -0.891677
rclavicle -5.27276e-014 1.11319e-014
rhumerus -40.5136 -18.6301 -79.4048
rradius 33.4207
rwrist -6.94175
rhand -18.3859 -3.24433
rfingers 7.12502
rthumb 7.89792 -33.0768
lclavicle -5.27276e-014 1.11319e-014
lhumerus -30.7617 -17.6783 85.8928
lradius 37.1692
lwrist 17.7166
lhand -14.9086 -1.16231
lfingers 7.12502
lthumb 11.2529 28.5159
rfemur -23.0035 -4.51443 16.0185
rtibia 63.9364
rfoot -11.0678 -12.9968
rtoes -8.40511
lfemur -7.45978 0.210927 -23.1414
ltibia 26.6684
lfoot -13.0335 10.2147
ltoes -8.92322
1322
root 2.60395 17.9748 26.6029 1.58992 0.321558 -1.44523
lowerback 4.30063 3.38855 4.17946
upperback 0.409796 4.67058 -2.46794
thorax -1.44294 2.31004 -5.12882
lowerneck -20.0307 -3.39689 1.06478
upperneck 24.3322 -5.26936 0.447739
head 11.1963 -2.22029 -0.820693
rclavicle 5.81445e-015 3.18055e-015
rhumerus -40.7415 -19.3079 -79.1293
rradius 33.3416
rwrist -6.84092
rhand -18.3553 -3.22735
rfingers 7.12502
rthumb 7.92743 -33.0587
lclavicle 5.81445e-015 3.18055e-015
lhumerus -30.5671 -18.4262 86.0702
lradius 37.1131
lwrist 17.8083
lhand -14.9468 -1.23157
lfingers 7.12502
lthumb 11.216 28.4486
rfemur -23.7903 -4.49971 15.5436
rtibia 63.581
rfoot -11.5467 -13.0949
rtoes -8.74243
lfemur -7.24693 0.288358 -23.6897
ltibia 26.4883
lfoot -12.9993 10.2074
ltoes -9.14032
1323
root 2.60574 17.9668 26.6347 1.55317 0.292221 -1.09103
lowerback 4.3109 3.4061 3.90333
upperback 0.43301 4.67915 -2.58596
thorax -1.43587 2.31657 -5.09663
lowerneck -20.0739 -3.48907 0.994565
upperneck 24.3661 -5.40418 0.537331
head 11.2221 -2.27513 -0.79872
rclavicle 4.11484e-014 1.59028e-015
rhumerus -40.9177 -19.6859 -78.917
rradius 33.2338
rwrist -6.72622
rhand -18.3164 -3.22265
rfingers 7.12502
rthumb 7.965 -33.0526
lclavicle 4.11484e-014 1.59028e-015
lhumerus -30.4548 -18.8187 86.2044
lradius 37.0769
lwrist 17.8169
lhand -14.9738 -1.34473
lfingers 7.12502
lthumb 11.19 28.3369
rfemur -24.4936 -4.49109 15.2187
rtibia 63.1213
rfoot -11.9659 -13.2263
rtoes -9.01891
lfemur -7.04003 0.365262 -24.0894
ltibia 26.3895
lfoot -13.0208 10.2022
ltoes -9.32401
1324
root 2.61083 17.9594 26.6662 1.44896 0.28416 -1.00131
lowerback 4.37408 3.27389 3.70536
upperback 0.453873 4.49582 -2.51731
thorax -1.49169 2.22439 -4.91095
lowerneck -20.0874 -3.40781 1.09775
upperneck 24.4107 -5.29478 0.428177
head 11.235 -2.22949 -0.839637
rclavicle 4.40308e-014 -4.77083e-015
rhumerus -41.011 -19.6199 -78.7981
rradius 33.0975
rwrist -6.57815
rhand -18.2636 -3.25109
rfingers 7.12502
rthumb 8.01592 -33.0791
lclavicle 4.40308e-014 -4.77083e-015
lhumerus -30.4469 -18.6749 86.2758
lradius 37.0552
lwrist 17.7065
lhand -14.968 -1.46915
lfingers 7.12502
lthumb 11.1956 28.2121
rfemur -25.0546 -4.48781 15.1868
rtibia 62.5484
rfoot -12.3389 -13.4118
rtoes -9.22958
lfemur -6.78692 0.459565 -24.1968
ltibia 26.3546
lfoot -13.1016 10.1741
ltoes -9.47135
1325
root 2.61756 17.9526 26.6975 1.29942 0.290845 -1.08952
lowerback 4.47787 3.03814 3.54291
upperback 0.46823 4.17918 -2.3154
thorax -1.59692 2.06387 -4.6037
lowerneck -20.0592 -3.20233 1.33197
upperneck 24.4504 -5.00816 0.163937
head 11.2305 -2.1123 -0.930542
rclavicle 2.1916e-014 7.95139e-015
rhumerus -41.0535 -19.2404 -78.7376
rradius 32.9475
rwrist -6.4294
rhand -18.2164 -3.28645
rfingers 7.12502
rthumb 8.06149 -33.1127
lclavicle 2.1916e-014 7.95139e-015
lhumerus -30.5229 -18.1762 86.3191
lradius 37.0421
lwrist 17.5734
lhand -14.944 -1.56942
lfingers 7.12502
lthumb 11.2188 28.1106
rfemur -25.5014 -4.48962 15.3529
rtibia 61.8605
rfoot -12.6598 -13.6342
rtoes -9.37145
lfemur -6.52358 0.545256 -24.1076
ltibia 26.4076
lfoot -13.2401 10.1553
ltoes -9.59592
1326
root 2.6243 17.9468 26.7295 1.1338 0.295587 -1.2452
lowerback 4.59658 2.77819 3.40107
upperback 0.483115 3.83263 -2.06692
thorax -1.71063 1.88853 -4.25784
lowerneck -20.0135 -2.97836 1.55409
upperneck 24.4879 -4.68857 -0.108394
head 11.224 -1.98253 -1.0173
rclavicle 1.25234e-014 1.59028e-015
rhumerus -41.075 -18.7708 -78.6873
rradius 32.7872
rwrist -6.29552
rhand -18.1911 -3.30106
rfingers 7.12502
rthumb 8.08593 -33.1264
lclavicle 1.25234e-014 1.59028e-015
lhumerus -30.6248 -17.5907 86.3672
lradius 37.0366
lwrist 17.444
lhand -14.9223 -1.64803
lfingers 7.12502
lthumb 11.2397 28.0309
rfemur -25.8896 -4.48543 15.5988
rtibia 61.1017
rfoot -12.9518 -13.8815
rtoes -9.44612
lfemur -6.24848 0.630466 -23.9409
ltibia 26.481
lfoot -13.3949 10.139
ltoes -9.70085
1327
root 2.63166 17.9422 26.7607 0.910962 0.307541 -1.64988
lowerback 4.78924 2.44985 3.42994
upperback 0.494353 3.40846 -1.70527
thorax -1.86863 1.67271 -3.88914
lowerneck -19.9139 -2.68716 1.84533
upperneck 24.5109 -4.27395 -0.454834
head 11.2009 -1.81351 -1.12715
rclavicle -1.89342e-014 5.96354e-015
rhumerus -41.0611 -18.0975 -78.689
rradius 32.6102
rwrist -6.20733
rhand -18.1708 -3.31633
rfingers 7.12502
rthumb 8.10554 -33.1409
lclavicle -1.89342e-014 5.96354e-015
lhumerus -30.7861 -16.8052 86.3897
lradius 37.0509
lwrist 17.3431
lhand -14.9074 -1.73049
lfingers 7.12502
lthumb 11.254 27.9476
rfemur -26.1653 -4.46182 16.1268
rtibia 60.2751
rfoot -13.2248 -14.1679
rtoes -9.483
lfemur -5.90727 0.715115 -23.4946
ltibia 26.547
lfoot -13.5599 10.1097
ltoes -9.789
1328
root 2.63299 17.9377 26.7932 0.82323 0.288621 -1.6305
lowerback 4.84869 2.28778 3.17504
upperback 0.480376 3.18349 -1.55937
thorax -1.95909 1.56 -3.58667
lowerneck -19.7969 -2.57945 1.93463
upperneck 24.5164 -4.11105 -0.589018
head 11.1769 -1.74978 -1.16409
rclavicle -1.63997e-015 3.97569e-016
rhumerus -41.1651 -17.8777 -78.5621
rradius 32.4683
rwrist -6.12948
rhand -18.155 -3.32767
rfingers 7.12502
rthumb 8.12073 -33.1516
lclavicle -1.63997e-015 3.97569e-016
lhumerus -30.8772 -16.5342 86.4989
lradius 37.0462
lwrist 17.3006
lhand -14.891 -1.77023
lfingers 7.12502
lthumb 11.2699 27.907
rfemur -26.6161 -4.43546 16.2025
rtibia 59.4596
rfoot -13.4565 -14.4052
rtoes -9.49236
lfemur -5.69717 0.788115 -23.5088
ltibia 26.5681
lfoot -13.6739 10.1019
ltoes -9.87775
1329
root 2.63325 17.934 26.826 0.759688 0.267223 -1.56762
lowerback 4.89552 2.15901 2.93567
upperback 0.464644 3.00217 -1.46546
thorax -2.03413 1.4696 -3.34791
lowerneck -19.6974 -2.51561 1.9974
upperneck 24.5128 -4.01644 -0.670805
head 11.1541 -1.71258 -1.18814
rclavicle -8.19987e-016 9.93923e-015
rhumerus -41.2794 -17.77 -78.436
rradius 32.3341
rwrist -6.06831
rhand -18.1467 -3.31095
rfingers 7.12502
rthumb 8.12873 -33.1346
lclavicle -8.19987e-016 9.93923e-015
lhumerus -30.9427 -16.4081 86.6064
lradius 37.0463
lwrist 17.3064
lhand -14.8855 -1.74803
lfingers 7.12502
lthumb 11.2752 27.9289
rfemur -27.0774 -4.40668 16.2364
rtibia 58.6244
rfoot -13.6664 -14.6146
rtoes -9.47378
lfemur -5.49306 0.843828 -23.5688
ltibia 26.5427
lfoot -13.757 10.0964
ltoes -9.96275
1330
root 2.63367 17.9315 26.8599 0.676907 0.26039 -1.56766
lowerback 4.98744 2.23832 3.16049
upperback 0.442958 3.12124 -1.53864
thorax -2.08249 1.52572 -3.56169
lowerneck -19.5565 -2.7305 1.76928
upperneck 24.4897 -4.30772 -0.439236
head 11.1254 -1.83721 -1.10676
rclavicle -6.88292e-015 -6.75868e-015
rhumerus -41.6346 -18.3588 -78.1012
rradius 32.2873
rwrist -6.01536
rhand -18.1364 -3.29993
rfingers 7.12502
rthumb 8.1387 -33.1232
lclavicle -6.88292e-015 -6.75868e-015
lhumerus -30.937 -17.1076 86.8628
lradius 37.0224
lwrist 17.408
lhand -14.8629 -1.68319
lfingers 7.12502
lthumb 11.297 27.9926
rfemur -27.4869 -4.39155 16.3387
rtibia 57.7782
rfoot -13.8712 -14.7961
rtoes -9.44547
lfemur -5.22573 0.887357 -23.559
ltibia 26.4392
lfoot -13.8059 10.0746
ltoes -10.0532
